{"title":"Cassadaga 720p fiveofseven zombiRG","uid":12019530,"size":1754484781,"categoryP":"video","categoryS":"hd___movies","magnet":"?xt=urn:btih:f07af724aea3ff9219d3435e0d1f999141d1d57d&amp;dn=Cassadaga+720p+fiveofseven+zombiRG&amp;tr=udp%3A%2F%2Ftracker.openbittorrent.com%3A80&amp;tr=udp%3A%2F%2Fopen.demonii.com%3A1337&amp;tr=udp%3A%2F%2Ftracker.coppersurfer.tk%3A6969&amp;tr=udp%3A%2F%2Fexodus.desync.com%3A6969","seeders":0,"leechers":1,"uploader":"fiveofseven","files":2,"time":1434393763,"description":"AAC 2.0 Track 1 &amp; AC3 5.1 Track 2\n\n\nPLOT - A deaf woman who resurrects the ghost of a murdered young woman \nis forced by the spirit to a serial killer \nwho turns his female victims into marionette dolls.\n\nGeneral\nComplete name                            : Cassadaga 720p fiveofseven zombiRG.mp4\nFormat                                   : MPEG-4\nFormat profile                           : Base Media\nCodec ID                                 : isom\nFile size                                : 1.62 GiB\nDuration                                 : 1h 48mn\nOverall bit rate mode                    : Variable\nOverall bit rate                         : 2 152 Kbps\nEncoded date                             : UTC 2014-04-04 11:04:00\nTagged date                              : UTC 2014-04-04 11:04:00\nWriting application                      : My MP4Box GUI 0.6.0.6 &lt;http://my-mp4box-gui.zymichost.com&gt;\n\nVideo\nID                                       : 1\nFormat                                   : AVC\nFormat/Info                              : Advanced Video Codec\nFormat profile                           : &lt;a class=&quot;__cf_email__&quot; href=&quot;/cdn-cgi/l/email-protection&quot; data-cfemail=&quot;024a6b656a424e312c30&quot;&gt;[email&amp;#160;protected]&lt;/a&gt;&lt;script data-cfhash='f9e31' type=&quot;text/javascript&quot;&gt;\n/* &lt;![CDATA[ */!function(){try{var t=&quot;currentScript&quot;in document?document.currentScript:function(){for(var t=document.getElementsByTagName(&quot;script&quot;),e=t.length;e--;)if(t[e].getAttribute(&quot;data-cfhash&quot;))return t[e]}();if(t&amp;&amp;t.previousSibling){var e,r,n,i,c=t.previousSibling,a=c.getAttribute(&quot;data-cfemail&quot;);if(a){for(e=&quot;&quot;,r=parseInt(a.substr(0,2),16),n=2;a.length-n;n+=2)i=parseInt(a.substr(n,2),16)^r,e+=String.fromCharCode(i);e=document.createTextNode(e),c.parentNode.replaceChild(e,c)}t.parentNode.removeChild(t);}}catch(u){}}()/* ]]&gt; */&lt;/script&gt;\nFormat settings, CABAC                   : Yes\nFormat settings, ReFrames                : 7 frames\nCodec ID                                 : avc1\nCodec ID/Info                            : Advanced Video Coding\nDuration                                 : 1h 48mn\nBit rate                                 : 1 700 Kbps\nMaximum bit rate                         : 12.1 Mbps\nWidth                                    : 1 280 pixels\nHeight                                   : 544 pixels\nDisplay aspect ratio                     : 2.35:1\nFrame rate mode                          : Constant\nFrame rate                               : 25.000 fps\nColor space                              : YUV\nChroma subsampling                       : 4:2:0\nBit depth                                : 8 bits\nScan type                                : Progressive\nBits/(Pixel*Frame)                       : 0.098\nStream size                              : 1.28 GiB (79%)\nTitle                                    : cassadaga fiveof.mp4\nWriting library                          : x264 core 133 r2334 a3ac64b\nEncoding settings                        : no\nLanguage                                 : English\nEncoded date                             : UTC 2014-04-03 23:40:14\nTagged date                              : UTC 2014-04-04 11:06:45\n\nAudio #1\nID                                       : 2\nFormat                                   : AAC\nFormat/Info                              : Advanced Audio Codec\nFormat profile                           : LC\nCodec ID                                 : 40\nDuration                                 : 1h 48mn\nBit rate mode                            : Variable\nBit rate                                 : 128 Kbps\nMaximum bit rate                         : 138 Kbps\nChannel count                            : 2 channels\nChannel positions                        : Front: L R\nSampling rate                            : 48.0 KHz\nCompression mode                         : Lossy\nDelay relative to video                  : 80ms\nStream size                              : 99.0 MiB (6%)\nTitle                                    : aac 2.0.mp4\nLanguage                                 : English\nEncoded date                             : UTC 2014-04-04 11:06:16\nTagged date                              : UTC 2014-04-04 11:06:45\n\nAudio #2\nID                                       : 3\nFormat                                   : AC-3\nFormat/Info                              : Audio Coding 3\nMode extension                           : CM (complete main)\nFormat settings, Endianness              : Big\nCodec ID                                 : ac-3\nDuration                                 : 1h 48mn\nBit rate mode                            : Constant\nBit rate                                 : 320 Kbps\nChannel count                            : 6 channels\nChannel positions                        : Front: L C R, Side: L R, LFE\nSampling rate                            : 48.0 KHz\nBit depth                                : 16 bits\nCompression mode                         : Lossy\nDelay relative to video                  : 80ms\nStream size                              : 247 MiB (15%)\nTitle                                    : ac3 5.1 at 320.ac3\nLanguage                                 : English\nEncoded date                             : UTC 2014-04-04 11:06:25\nTagged date                              : UTC 2014-04-04 11:06:45\n\n &lt;a href=&quot;\nhttps://yuq.me/users/25/564/a5tfFPJjxR.png&quot; rel=&quot;nofollow&quot; target=&quot;_NEW&quot;&gt;\nhttps://yuq.me/users/25/564/a5tfFPJjxR.png&lt;/a&gt; &lt;a href=&quot;\nhttps://yuq.me/users/25/564/CsV7maTQF3.png&quot; rel=&quot;nofollow&quot; target=&quot;_NEW&quot;&gt;\nhttps://yuq.me/users/25/564/CsV7maTQF3.png&lt;/a&gt; &lt;a href=&quot;\nhttps://yuq.me/users/25/564/NlrT0MwmWG.png&quot; rel=&quot;nofollow&quot; target=&quot;_NEW&quot;&gt;\nhttps://yuq.me/users/25/564/NlrT0MwmWG.png&lt;/a&gt; &lt;a href=&quot;\nhttps://yuq.me/users/25/564/Facn7iHydL.png&quot; rel=&quot;nofollow&quot; target=&quot;_NEW&quot;&gt;\nhttps://yuq.me/users/25/564/Facn7iHydL.png&lt;/a&gt;\n &lt;a href=&quot;\nhttps://yuq.me/users/25/564/aegRQCBILx.png&quot; rel=&quot;nofollow&quot; target=&quot;_NEW&quot;&gt;\nhttps://yuq.me/users/25/564/aegRQCBILx.png&lt;/a&gt;","torrent":{"xt":"urn:btih:f07af724aea3ff9219d3435e0d1f999141d1d57d","amp;dn":"Cassadaga+720p+fiveofseven+zombiRG","amp;tr":["udp%3A%2F%2Ftracker.openbittorrent.com%3A80","udp%3A%2F%2Fopen.demonii.com%3A1337","udp%3A%2F%2Ftracker.coppersurfer.tk%3A6969","udp%3A%2F%2Fexodus.desync.com%3A6969"],"infoHash":"f07af724aea3ff9219d3435e0d1f999141d1d57d","infoHashBuffer":{"type":"Buffer","data":[240,122,247,36,174,163,255,146,25,211,67,94,13,31,153,145,65,209,213,125]},"announce":[],"urlList":[]}}